/* XPM */
static char * apid1_xpm[] = {
"32 18 2 1",
".	c #FFFFFF",
"+	c #000000",
"++++++++++++++++++++++++++++++++",
"+..............................+",
"+..............++.......++.....+",
"+............++++....+++++.....+",
"+..........+++.++....+++++.....+",
"+........+++...++.......++.....+",
"+...+++++++....++.......++.....+",
"+...++++++.....++.......++.....+",
"+...++..++.....++.......++.....+",
"+...++..++.....++.......++.....+",
"+...++++++.....++.......++.....+",
"+...+++++++....++.......++.....+",
"+........+++...++.......++.....+",
"+..........+++.++.......++.....+",
"+............++++.......++.....+",
"+.............+++.......++.....+",
"+..............................+",
"++++++++++++++++++++++++++++++++"};
