/* XPM */
static char * apid2_xpm[] = {
"32 18 2 1",
".	c #FFFFFF",
"+	c #000000",
"++++++++++++++++++++++++++++++++",
"+..............................+",
"+..............++.....++++.....+",
"+............++++...+++++++....+",
"+..........+++.++...++....++...+",
"+........+++...++.........++...+",
"+...+++++++....++.........++...+",
"+...++++++.....++........+++...+",
"+...++..++.....++.......+++....+",
"+...++..++.....++......+++.....+",
"+...++++++.....++.....+++......+",
"+...+++++++....++....+++.......+",
"+........+++...++...+++........+",
"+..........+++.++...++.........+",
"+............++++...++++++++...+",
"+.............+++...++++++++...+",
"+..............................+",
"++++++++++++++++++++++++++++++++"};
