/* XPM */
static char * ar11_xpm[] = {
"21 18 2 1",
".	c #FFFFFF",
"+	c #000000",
".....................",
".....................",
"....++...........++..",
"...+++..........+++..",
"..++++....++...++++..",
"..++++...++++..++++..",
"....++...++++....++..",
"....++....++.....++..",
"....++...........++..",
"....++...........++..",
"....++....++.....++..",
"....++...++++....++..",
"....++...++++....++..",
"....++....++.....++..",
"....++...........++..",
"....++...........++..",
".....................",
"....................."};
