/* XPM */
static char * ar169_xpm[] = {
"36 18 2 1",
".	c #FFFFFF",
"+	c #000000",
"....................................",
"....................................",
"....++....+++++............+++++....",
"...+++...+++++++..........+++++++...",
"..++++..+++...+++...++...+++...+++..",
"..++++..++.....++..++++..++.....++..",
"....++..++.........++++..++.....++..",
"....++..++..........++...+++...+++..",
"....++..++.++++...........++++++++..",
"....++..++++++++...........+++++++..",
"....++..+++...+++...++..........++..",
"....++..++.....++..++++.........++..",
"....++..++.....++..++++..++.....++..",
"....++..+++...+++...++...+++...+++..",
"....++...+++++++..........+++++++...",
"....++....+++++............+++++....",
"....................................",
"...................................."};
