/* XPM */
static char * ar2211_xpm[] = {
"43 18 2 1",
".	c #FFFFFF",
"+	c #000000",
"...........................................",
"...........................................",
"....++++........++++......++...........++..",
"...++++++......++++++....+++..........+++..",
"..+++..+++....+++..+++..++++....++...++++..",
"..++....++....++....++..++++...++++..++++..",
"..++....++....++....++....++...++++....++..",
".......+++.........+++....++....++.....++..",
"......+++.........+++.....++...........++..",
".....+++.........+++......++...........++..",
"....+++.........+++.......++....++.....++..",
"...+++.........+++........++...++++....++..",
"..+++.........+++.........++...++++....++..",
"..++....++.++.++....++....++....++.....++..",
"..++++++++.++.++++++++....++...........++..",
"..++++++++.++.++++++++....++...........++..",
"...........................................",
"..........................................."};
