/* XPM */
static char * ar43_xpm[] = {
"31 18 2 1",
".	c #FFFFFF",
"+	c #000000",
"+++++++++++++++++++++++++++++++",
"+.............................+",
"+.........++.........+++++....+",
"+........+++........+++++++...+",
"+.......++++.......++....++...+",
"+......++.++...++..++....++...+",
"+.....++..++...++........++...+",
"+.....++..++............++....+",
"+....++...++..........+++.....+",
"+...++....++..........++++....+",
"+...+++++++++...........+++...+",
"+...+++++++++............++...+",
"+.........++.......++....++...+",
"+.........++.......++...+++...+",
"+.........++...++...++++++....+",
"+.........++...++....++++.....+",
"+.............................+",
"+++++++++++++++++++++++++++++++"};
