/* XPM */
static char * ar43_xpm[] = {
"32 18 2 1",
".	c #FFFFFF",
"+	c #000000",
"................................",
"................................",
"....++..++............++++++....",
"....++..++...........++++++++...",
"...+++..++.....++...+++....+++..",
"...++...++....++++..++......++..",
"...++...++....++++..++......++..",
"..+++...++.....++..........+++..",
"..++....++..............+++++...",
"..++....++..............+++++...",
"..++++++++++...++..........+++..",
"..++++++++++..++++..++......++..",
"........++....++++..++......++..",
"........++.....++...+++....+++..",
"........++...........++++++++...",
"........++............++++++....",
"................................",
"................................"};
