/* XPM */
static char * dev1_xpm[] = {
"29 18 2 1",
".	c #FFFFFF",
"+	c #000000",
"+++++++++++++++++++++++++++++",
"+...........................+",
"+.......+..+.........++.....+",
"+.......+..+......+++++.....+",
"+.......+..+......+++++.....+",
"+....+++++++++.......++.....+",
"+....+++++++++.......++.....+",
"+......+..+..........++.....+",
"+......+..+..........++.....+",
"+......+..+..........++.....+",
"+......+..+..........++.....+",
"+...+++++++++........++.....+",
"+...+++++++++........++.....+",
"+.....+..+...........++.....+",
"+.....+..+...........++.....+",
"+.....+..+...........++.....+",
"+...........................+",
"+++++++++++++++++++++++++++++"};
