/* XPM */
static char * dev2_xpm[] = {
"29 18 2 1",
".	c #FFFFFF",
"+	c #000000",
"+++++++++++++++++++++++++++++",
"+...........................+",
"+.......+..+.......++++.....+",
"+.......+..+.....+++++++....+",
"+.......+..+.....++....++...+",
"+....+++++++++.........++...+",
"+....+++++++++.........++...+",
"+......+..+...........+++...+",
"+......+..+..........+++....+",
"+......+..+.........+++.....+",
"+......+..+........+++......+",
"+...+++++++++.....+++.......+",
"+...+++++++++....+++........+",
"+.....+..+.......++.........+",
"+.....+..+.......++++++++...+",
"+.....+..+.......++++++++...+",
"+...........................+",
"+++++++++++++++++++++++++++++"};
