/* XPM */
static char * dolbydigital51_xpm[] = {
"44 18 2 1",
".	c #FFFFFF",
"+	c #000000",
"............................................",
"............................................",
"..+++++++++++.+++++++++++..++++++++.....++..",
"..++.++++++++.++++++++.++..++++++++....+++..",
"..++...++++++.++++++...++..++.........++++..",
"..++.....++++.++++.....++..++.........++++..",
"..++......+++.+++......++..++...........++..",
"..++.......++.++.......++..++++++.......++..",
"..++.......++.++.......++..+++++++......++..",
"..++.......++.++.......++.......+++.....++..",
"..++.......++.++.......++........++.....++..",
"..++......+++.+++......++..++....++.....++..",
"..++.....++++.++++.....++..++....++.....++..",
"..++...++++++.++++++...++..+++..+++.++..++..",
"..++.++++++++.++++++++.++...++++++..++..++..",
"..+++++++++++.+++++++++++....++++...++..++..",
"............................................",
"............................................"};
