/* XPM */
static char * dolbydigital20_xpm[] = {
"49 18 2 1",
".	c #FFFFFF",
"+	c #000000",
".................................................",
".................................................",
"..+++++++++++.+++++++++++....++++.......++++++...",
"..++.++++++++.++++++++.++...++++++.....++++++++..",
"..++...++++++.++++++...++..+++..+++....+++..+++..",
"..++.....++++.++++.....++..++....++....++....++..",
"..++......+++.+++......++..++....++....++....++..",
"..++.......++.++.......++.......+++....++....++..",
"..++.......++.++.......++......+++.....++....++..",
"..++.......++.++.......++.....+++......++....++..",
"..++.......++.++.......++....+++.......++....++..",
"..++......+++.+++......++...+++........++....++..",
"..++.....++++.++++.....++..+++.........++....++..",
"..++...++++++.++++++...++..++....++.++.+++..+++..",
"..++.++++++++.++++++++.++..++++++++.++.++++++++..",
"..+++++++++++.+++++++++++..++++++++.++..++++++...",
".................................................",
"................................................."};
