/* XPM */
static char * dolbydigital51_xpm[] = {
"51 18 2 1",
".	c #FFFFFF",
"+	c #000000",
"+++++++++++++++++++++++++++++++++++++++++++++++++++",
"+.................................................+",
"+...+++++++++++.+++++++++++...+++++++........++...+",
"+...++.++++++++.++++++++.++...+++++++.....+++++...+",
"+...++...++++++.++++++...++...++..........+++++...+",
"+...++.....++++.++++.....++...++.............++...+",
"+...++......+++.+++......++...++++++.........++...+",
"+...++.......++.++.......++...+++++++........++...+",
"+...++.......++.++.......++...++...+++.......++...+",
"+...++.......++.++.......++.........++.......++...+",
"+...++.......++.++.......++.........++.......++...+",
"+...++......+++.+++......++.........++.......++...+",
"+...++.....++++.++++.....++...++....++.......++...+",
"+...++...++++++.++++++...++...++...+++.......++...+",
"+...++.++++++++.++++++++.++...+++++++...++...++...+",
"+...+++++++++++.+++++++++++....+++++....++...++...+",
"+.................................................+",
"+++++++++++++++++++++++++++++++++++++++++++++++++++"};
