/* XPM */
static const char *const encrypted_xpm[] = {
"23 18 2 1",
".	c #FFFFFF",
"+	c #000000",
"+++++++++++++++++++++++",
"+.....................+",
"+.....................+",
"+.....................+",
"+..............+++....+",
"+.............+++++...+",
"+............+++.+++..+",
"+............++...++..+",
"+..++++++++++++...++..+",
"+..++++++++++++...++..+",
"+...++.++....++...++..+",
"+...++.++....+++.+++..+",
"+...++.++.....+++++...+",
"+..............+++....+",
"+.....................+",
"+.....................+",
"+.....................+",
"+++++++++++++++++++++++"};
