/* XPM */
static const char *const format720p_xpm[] = {
"41 18 2 1",
".	c #FFFFFF",
"+	c #000000",
"+++++++++++++++++++++++++++++++++++++++++",
"+.......................................+",
"+...++++++++...++++.....++++............+",
"+...++++++++.+++++++...++++++...........+",
"+...++....++.++....++..++..++...........+",
"+.........++.......++.++....++..........+",
"+.........++.......++.++....++..........+",
"+.........++.......++.++....++.++++.....+",
"+........++......+++..++....++.+++++....+",
"+.......+++.....+++...++....++.++..++...+",
"+.......++.....+++....++....++.++..++...+",
"+.......++....+++.....++....++.+++++....+",
"+......+++...+++......++....++.++++.....+",
"+......++....++........++..++..++.......+",
"+......++....++++++++..++++++..++.......+",
"+......++....++++++++...++++...++.......+",
"+.......................................+",
"+++++++++++++++++++++++++++++++++++++++++"};
