/* XPM */
static const char *const format576i_xpm[] = {
"36 18 2 1",
".	c #FFFFFF",
"+	c #000000",
"++++++++++++++++++++++++++++++++++++",
"+..................................+",
"+...+++++++.++++++++..++++++.......+",
"+...+++++++.++++++++.++++++++......+",
"+...++......++....++.+++...++......+",
"+...++............++.++............+",
"+...++...........+++.++.......++...+",
"+...++++++.......++..++.+++...++...+",
"+...+++++++......++..+++++++.......+",
"+...++...+++....+++..+++..+++.++...+",
"+.........++....++...++....++.++...+",
"+.........++....++...++....++.++...+",
"+...++....++...+++...++....++.++...+",
"+...++...+++...++....+++..+++.++...+",
"+...+++++++....++....+++++++..++...+",
"+....+++++.....++.....+++++...++...+",
"+..................................+",
"++++++++++++++++++++++++++++++++++++"};
