/* XPM */
static const char *const format480p_xpm[] = {
"42 18 2 1",
".	c #FFFFFF",
"+	c #000000",
"++++++++++++++++++++++++++++++++++++++++++",
"+........................................+",
"+.........++....++++.....++++............+",
"+........+++...++++++...++++++...........+",
"+.......++++...++..++...++..++...........+",
"+......++.++..++....++.++....++..........+",
"+.....++..++..++....++.++....++..........+",
"+.....++..++...++..++..++....++.++++.....+",
"+....++...++....++++...++....++.+++++....+",
"+...++....++....++++...++....++.++..++...+",
"+...+++++++++..++..++..++....++.++..++...+",
"+...+++++++++.++....++.++....++.+++++....+",
"+.........++..++....++.++....++.++++.....+",
"+.........++...++..++...++..++..++.......+",
"+.........++...++++++...++++++..++.......+",
"+.........++....++++.....++++...++.......+",
"+........................................+",
"++++++++++++++++++++++++++++++++++++++++++"};
