/* XPM */
static const char *const format480_xpm[] = {
"35 18 2 1",
".	c #FFFFFF",
"+	c #000000",
"+++++++++++++++++++++++++++++++++++",
"+.................................+",
"+.........++....++++.....++++.....+",
"+........+++...++++++...++++++....+",
"+.......++++...++..++...++..++....+",
"+......++.++..++....++.++....++...+",
"+.....++..++..++....++.++....++...+",
"+.....++..++...++..++..++....++...+",
"+....++...++....++++...++....++...+",
"+...++....++....++++...++....++...+",
"+...+++++++++..++..++..++....++...+",
"+...+++++++++.++....++.++....++...+",
"+.........++..++....++.++....++...+",
"+.........++...++..++...++..++....+",
"+.........++...++++++...++++++....+",
"+.........++....++++.....++++.....+",
"+.................................+",
"+++++++++++++++++++++++++++++++++++"};
