/* XPM */
static const char *const format1080i_xpm[] = {
"42 18 2 1",
".	c #FFFFFF",
"+	c #000000",
"++++++++++++++++++++++++++++++++++++++++++",
"+........................................+",
"+......++...++++.....++++.....++++.......+",
"+...+++++..++++++...++++++...++++++......+",
"+...+++++..++..++...++..++...++..++......+",
"+......++.++....++.++....++.++....++.....+",
"+......++.++....++.++....++.++....++.++..+",
"+......++.++....++..++..++..++....++.++..+",
"+......++.++....++...++++...++....++.....+",
"+......++.++....++...++++...++....++.++..+",
"+......++.++....++..++..++..++....++.++..+",
"+......++.++....++.++....++.++....++.++..+",
"+......++.++....++.++....++.++....++.++..+",
"+......++..++..++...++..++...++..++..++..+",
"+......++..++++++...++++++...++++++..++..+",
"+......++...++++.....++++.....++++...++..+",
"+........................................+",
"++++++++++++++++++++++++++++++++++++++++++"};
