/* XPM */
static const char *const format2160p_xpm[] = {
"47 18 2 1",
".	c #FFFFFF",
"+	c #000000",
"+++++++++++++++++++++++++++++++++++++++++++++++",
"+.............................................+",
"+.....++++......++..++++++....++++............+",
"+...+++++++..+++++.++++++++..++++++...........+",
"+...++....++.+++++.+++...++..++..++...........+",
"+.........++....++.++.......++....++..........+",
"+.........++....++.++.......++....++..........+",
"+.........++....++.++.+++...++....++.++++.....+",
"+.......+++.....++.+++++++..++....++.+++++....+",
"+......+++......++.+++..+++.++....++.++..++...+",
"+.....+++.......++.++....++.++....++.++..++...+",
"+.....+++.......++.++....++.++....++.+++++....+",
"+....+++........++.++....++.++....++.++++.....+",
"+....++.........++.+++..+++..++..++..++.......+",
"+....++++++++...++..+++++++..++++++..++.......+",
"+....++++++++...++...+++++....++++...++.......+",
"+.............................................+",
"+++++++++++++++++++++++++++++++++++++++++++++++"};
