/* XPM */
static const char *const format720i_xpm[] = {
"37 18 2 1",
".	c #FFFFFF",
"+	c #000000",
"+++++++++++++++++++++++++++++++++++++",
"+...................................+",
"+...++++++++...++++.....++++........+",
"+...++++++++.+++++++...++++++.......+",
"+...++....++.++....++..++..++.......+",
"+.........++.......++.++....++......+",
"+.........++.......++.++....++.++...+",
"+.........++.......++.++....++.++...+",
"+........++......+++..++....++......+",
"+.......+++.....+++...++....++.++...+",
"+.......++.....+++....++....++.++...+",
"+.......++....+++.....++....++.++...+",
"+......+++...+++......++....++.++...+",
"+......++....++........++..++..++...+",
"+......++....++++++++..++++++..++...+",
"+......++....++++++++...++++...++...+",
"+...................................+",
"+++++++++++++++++++++++++++++++++++++"};
