/* XPM */
static const char *const format576_xpm[] = {
"36 18 2 1",
".	c #FFFFFF",
"+	c #000000",
"++++++++++++++++++++++++++++++++++++",
"...................................+",
"...+++++++...++++++++....++++++....+",
"...+++++++...++++++++...++++++++...+",
"...++........++....++...+++...++...+",
"...++..............++...++.........+",
"...++.............+++...++.........+",
"...++++++.........++....++.+++.....+",
"...+++++++........++....+++++++....+",
"...++...+++......+++....+++..+++...+",
".........++......++.....++....++...+",
".........++......++.....++....++...+",
"...++....++.....+++.....++....++...+",
"...++...+++.....++......+++..+++...+",
"...+++++++......++......+++++++....+",
"....+++++.......++.......+++++.....+",
"...................................+",
"++++++++++++++++++++++++++++++++++++"};
