/* XPM */
static const char *const format480i_xpm[] = {
"38 18 2 1",
".	c #FFFFFF",
"+	c #000000",
"++++++++++++++++++++++++++++++++++++++",
"+....................................+",
"+.........++....++++.....++++........+",
"+........+++...++++++...++++++.......+",
"+.......++++...++..++...++..++.......+",
"+......++.++..++....++.++....++......+",
"+.....++..++..++....++.++....++.++...+",
"+.....++..++...++..++..++....++.++...+",
"+....++...++....++++...++....++......+",
"+...++....++....++++...++....++.++...+",
"+...+++++++++..++..++..++....++.++...+",
"+...+++++++++.++....++.++....++.++...+",
"+.........++..++....++.++....++.++...+",
"+.........++...++..++...++..++..++...+",
"+.........++...++++++...++++++..++...+",
"+.........++....++++.....++++...++...+",
"+....................................+",
"++++++++++++++++++++++++++++++++++++++"};
