/* XPM */
static char * four_xpm[] = {
"15 18 2 1",
".	c #FFFFFF",
"+	c #000000",
"+++++++++++++++",
"..............+",
".........++...+",
"........+++...+",
".......++++...+",
"......++.++...+",
".....++..++...+",
".....++..++...+",
"....++...++...+",
"...++....++...+",
"...+++++++++..+",
"...+++++++++..+",
".........++...+",
".........++...+",
".........++...+",
".........++...+",
"..............+",
"+++++++++++++++"};
