/* XPM */
static const char *const h264_xpm[] = {
"40 18 2 1",
".	c #FFFFFF",
"+	c #000000",
"++++++++++++++++++++++++++++++++++++++++",
"+......................................+",
"+..++...++.....+++++...+++++.......++..+",
"+..++...++....+++++++.+++++++.....+++..+",
"+..++...++....++...++.++...++....++++..+",
"+..++...++.........++.++........+++....+",
"+..++...++.........++.++.......+++.....+",
"+..++...++........+++.++......+++......+",
"+..+++++++.......+++..++++++..++...++..+",
"+..+++++++......+++...+++++++.+++++++..+",
"+..++...++.....+++....++...++.+++++++..+",
"+..++...++....+++.....++...++......++..+",
"+..++...++....++......++...++......++..+",
"+..++...++....++...++.++...++......++..+",
"+..++...++.++.+++++++.+++++++......++..+",
"+..++...++.++.+++++++..+++++.......++..+",
"+......................................+",
"++++++++++++++++++++++++++++++++++++++++"};
