/* XPM */
static const char *const h265_xpm[] = {
"40 18 2 1",
".	c #FFFFFF",
"+	c #000000",
"++++++++++++++++++++++++++++++++++++++++",
"+......................................+",
"+..++...++.....+++++...+++++..+++++++..+",
"+..++...++....+++++++.+++++++.+++++++..+",
"+..++...++....++...++.++...++.++.......+",
"+..++...++.........++.++......++.......+",
"+..++...++.........++.++......++.......+",
"+..++...++........+++.++......++.......+",
"+..+++++++.......+++..++++++..++++++...+",
"+..+++++++......+++...+++++++.+++++++..+",
"+..++...++.....+++....++...++.....+++..+",
"+..++...++....+++.....++...++......++..+",
"+..++...++....++......++...++......++..+",
"+..++...++....++...++.++...++.++...++..+",
"+..++...++.++.+++++++.+++++++.++...++..+",
"+..++...++.++.+++++++..+++++...+++++...+",
"+......................................+",
"++++++++++++++++++++++++++++++++++++++++"};
