/* XPM */
static const char *const mpeg2_xpm[] = {
"44 18 2 1",
".	c #FFFFFF",
"+	c #000000",
"++++++++++++++++++++++++++++++++++++++++++++",
"+..........................................+",
"+..++....++.+++++...+++++..+++++...+++++...+",
"+..++....++.++++++..+++++.+++++++.+++++++..+",
"+..+++..+++.++..+++.++....+++..++.++...++..+",
"+..+++..+++.++...++.++....++...........++..+",
"+..++++++++.++...++.++....++...........++..+",
"+..++++++++.++..+++.++....++..........+++..+",
"+..++.++.++.++++++..++++..++.++++....+++...+",
"+..++.++.++.+++++...++++..++.++++...+++....+",
"+..++....++.++......++....++...++..+++.....+",
"+..++....++.++......++....++...++.+++......+",
"+..++....++.++......++....++...++.++.......+",
"+..++....++.++......++....+++..++.++...++..+",
"+..++....++.++......+++++.+++++++.+++++++..+",
"+..++....++.++......+++++..+++++..+++++++..+",
"+..........................................+",
"++++++++++++++++++++++++++++++++++++++++++++"};
