/* XPM */
static char * ntsc_xpm[] = {
"38 18 2 1",
".	c #FFFFFF",
"+	c #000000",
"......................................",
"......................................",
"..++....++.++++++++..+++++....+++++...",
"..++....++.++++++++.+++++++..+++++++..",
"..+++...++....++....++...++..++...++..",
"..+++...++....++....++...++..++...++..",
"..++++..++....++....++.......++.......",
"..++++..++....++....++++.....++.......",
"..++.++.++....++.....+++++...++.......",
"..++.++.++....++.......++++..++.......",
"..++..++++....++.........++..++.......",
"..++..++++....++....++...++..++...++..",
"..++...+++....++....++...++..++...++..",
"..++...+++....++....++...++..++...++..",
"..++....++....++....+++++++..+++++++..",
"..++....++....++.....+++++....+++++...",
"......................................",
"......................................"};
