/* XPM */
static char * pal_xpm[] = {
"30 18 2 1",
".	c #FFFFFF",
"+	c #000000",
"..............................",
"..............................",
"..+++++++....+++++...++.......",
"..+++..+++..+++++++..++.......",
"..++....++..++...++..++.......",
"..++....++.+++...+++.++.......",
"..++....++.++.....++.++.......",
"..++....++.++.....++.++.......",
"..++....++.++.....++.++.......",
"..+++..+++.+++++++++.++.......",
"..+++++++..+++++++++.++.......",
"..++.......++.....++.++.......",
"..++.......++.....++.++.......",
"..++.......++.....++.++.......",
"..++.......++.....++.+++++++..",
"..++.......++.....++.+++++++..",
"..............................",
".............................."};
