/* XPM */
static char * pal_xpm[] = {
"18 18 2 1",
".	c #FFFFFF",
"+	c #000000",
"++++++++++++++++++",
"+................+",
"+...++++++++.....+",
"+...+++++++++....+",
"+...++.....+++...+",
"+...++......++...+",
"+...++......++...+",
"+...++.....+++...+",
"+...+++++++++....+",
"+...++++++++.....+",
"+...++...........+",
"+...++...........+",
"+...++...........+",
"+...++...........+",
"+...++...........+",
"+...++...........+",
"+................+",
"++++++++++++++++++"};
