/* XPM */
static const char *const six_xpm[] = {
"15 18 2 1",
".	c #FFFFFF",
"+	c #000000",
"+++++++++++++++",
"..............+",
"....++++++....+",
"...++++++++...+",
"...+++...++...+",
"...++.........+",
"...++.........+",
"...++.+++.....+",
"...+++++++....+",
"...+++..+++...+",
"...++....++...+",
"...++....++...+",
"...++....++...+",
"...+++..+++...+",
"...+++++++....+",
"....+++++.....+",
"..............+",
"+++++++++++++++"};
