/* XPM */
static char * zero_xpm[] = {
"15 18 2 1",
".	c #FFFFFF",
"+	c #000000",
"+++++++++++++++",
"..............+",
".....++++.....+",
"....++++++....+",
"....++..++....+",
"...++....++...+",
"...++....++...+",
"...++....++...+",
"...++....++...+",
"...++....++...+",
"...++....++...+",
"...++....++...+",
"...++....++...+",
"....++..++....+",
"....++++++....+",
".....++++.....+",
"..............+",
"+++++++++++++++"};
